<?xml version="1.0" encoding="UTF-8" standalone="no"?>
<!-- Created with Inkscape (http://www.inkscape.org/) -->

<svg
   xmlns:dc="http://purl.org/dc/elements/1.1/"
   xmlns:cc="http://creativecommons.org/ns#"
   xmlns:rdf="http://www.w3.org/1999/02/22-rdf-syntax-ns#"
   xmlns:svg="http://www.w3.org/2000/svg"
   xmlns="http://www.w3.org/2000/svg"
   xmlns:sodipodi="http://sodipodi.sourceforge.net/DTD/sodipodi-0.dtd"
   xmlns:inkscape="http://www.inkscape.org/namespaces/inkscape"
   width="744.09448819"
   height="1052.3622047"
   id="svg2"
   version="1.1"
   inkscape:version="0.48.4 r9939"
   sodipodi:docname="New document 1">
  <defs
     id="defs4" />
  <sodipodi:namedview
     id="base"
     pagecolor="#ffffff"
     bordercolor="#666666"
     borderopacity="1.0"
     inkscape:pageopacity="0.0"
     inkscape:pageshadow="2"
     inkscape:zoom="5.6"
     inkscape:cx="50.638856"
     inkscape:cy="987.33625"
     inkscape:document-units="px"
     inkscape:current-layer="layer1"
     showgrid="false"
     inkscape:window-width="1280"
     inkscape:window-height="982"
     inkscape:window-x="0"
     inkscape:window-y="20"
     inkscape:window-maximized="1" />
  <metadata
     id="metadata7">
    <rdf:RDF>
      <cc:Work
         rdf:about="">
        <dc:format>image/svg+xml</dc:format>
        <dc:type
           rdf:resource="http://purl.org/dc/dcmitype/StillImage" />
        <dc:title></dc:title>
      </cc:Work>
    </rdf:RDF>
  </metadata>
  <g
     inkscape:label="Layer 1"
     inkscape:groupmode="layer"
     id="layer1">
    <rect
       style="fill:#282828;fill-opacity:1;stroke:none"
       id="rect2985"
       width="14"
       height="14"
       x="21.641499"
       y="74.651276"
       ry="0.34692886"
       inkscape:export-filename="/home/kagura/.fluxbox/styles/Mine/pixmaps/min.png"
       inkscape:export-xdpi="90"
       inkscape:export-ydpi="90" />
    <path
       style="fill:#8fb3d9;fill-opacity:1;stroke:none"
       d="m 28.641499,79.270323 c -1.312687,0 -2.380953,1.068266 -2.380953,2.380953 0,1.312686 1.068266,2.380952 2.380953,2.380952 1.312686,0 2.380952,-1.068266 2.380952,-2.380952 0,-1.312687 -1.068266,-2.380953 -2.380952,-2.380953 z m 0,1.022409 c 0.750107,0 1.358543,0.608437 1.358543,1.358544 0,0.750107 -0.608436,1.358543 -1.358543,1.358543 -0.750107,0 -1.358544,-0.608436 -1.358544,-1.358543 0,-0.750107 0.608437,-1.358544 1.358544,-1.358544 z"
       id="path3755"
       inkscape:connector-curvature="0"
       inkscape:export-filename="/home/kagura/.fluxbox/styles/Mine/pixmaps/min.png"
       inkscape:export-xdpi="90"
       inkscape:export-ydpi="90" />
    <rect
       style="fill:#282828;fill-opacity:1;stroke:none"
       id="rect2985-5"
       width="14"
       height="14"
       x="45.57143"
       y="74.651276"
       ry="0.34692886"
       inkscape:export-filename="/home/kagura/.fluxbox/styles/Mine/pixmaps/max.png"
       inkscape:export-xdpi="90"
       inkscape:export-ydpi="90" />
    <path
       style="fill:#8fb3d9;fill-opacity:1;stroke:none"
       d="m 50.509591,79.347704 c -0.131182,0 -0.241732,0.11055 -0.241732,0.241733 l 0,1.060374 3.099867,0 c 0.131184,0 0.241733,0.110549 0.241733,0.241733 l 0,3.063303 1.02381,0 c 0.131183,0 0.241733,-0.11055 0.241733,-0.241732 l 0,-4.123678 c 0,-0.131183 -0.11055,-0.241733 -0.241733,-0.241733 z"
       id="rect3777"
       inkscape:connector-curvature="0"
       sodipodi:nodetypes="sscsscsssss"
       inkscape:export-filename="/home/kagura/.fluxbox/styles/Mine/pixmaps/max.png"
       inkscape:export-xdpi="90"
       inkscape:export-ydpi="90" />
    <rect
       style="fill:#282828;fill-opacity:1;stroke:none"
       id="rect2985-5-6"
       width="14"
       height="14"
       x="69.680855"
       y="74.651276"
       ry="0.34692886"
       inkscape:export-filename="/home/kagura/.fluxbox/styles/Mine/pixmaps/close.png"
       inkscape:export-xdpi="90"
       inkscape:export-ydpi="90" />
    <path
       style="fill:#8fb3d9;fill-opacity:1;stroke:none"
       d="m 75.226225,79.440132 c -0.175585,0 -0.357162,0.07033 -0.491706,0.204878 l -0.06146,0.06146 c -0.269088,0.269088 -0.269088,0.714324 0,0.983412 l 0.962924,0.962924 -0.962924,0.962925 c -0.269088,0.269088 -0.269088,0.714324 0,0.983412 l 0.06146,0.06146 c 0.269088,0.269089 0.714324,0.269089 0.983412,0 l 0.962925,-0.962924 0.962924,0.962924 c 0.269088,0.269089 0.714325,0.269089 0.983412,0 l 0.06146,-0.06146 c 0.269087,-0.269088 0.269087,-0.714324 0,-0.983412 l -0.962925,-0.962925 0.962925,-0.962924 c 0.269087,-0.269088 0.269087,-0.714324 0,-0.983412 l -0.06146,-0.06146 c -0.269087,-0.269089 -0.714324,-0.269089 -0.983412,0 L 76.680856,80.607934 75.717931,79.64501 C 75.583387,79.510465 75.40181,79.440132 75.226225,79.440132 z"
       id="rect3807"
       inkscape:connector-curvature="0"
       inkscape:export-filename="/home/kagura/.fluxbox/styles/Mine/pixmaps/close.png"
       inkscape:export-xdpi="90"
       inkscape:export-ydpi="90" />
    <rect
       style="fill:#282828;fill-opacity:1;stroke:none"
       id="rect2985-5-2"
       width="14"
       height="14"
       x="-59.85714"
       y="-107.9336"
       ry="0.34692886"
       inkscape:export-filename="/home/kagura/.fluxbox/styles/Mine/pixmaps/max.png"
       inkscape:export-xdpi="90"
       inkscape:export-ydpi="90"
       transform="scale(-1,-1)" />
    <path
       style="fill:#8fb3d9;fill-opacity:1;stroke:none"
       d="m 54.918979,103.23718 c 0.131182,0 0.241732,-0.11055 0.241732,-0.24174 l 0,-1.06037 -3.099867,0 c -0.131184,0 -0.241733,-0.11055 -0.241733,-0.24173 l 0,-3.063307 -1.02381,0 c -0.131183,0 -0.241733,0.11055 -0.241733,0.241732 l 0,4.123675 c 0,0.13119 0.11055,0.24174 0.241733,0.24174 z"
       id="rect3777-6"
       inkscape:connector-curvature="0"
       sodipodi:nodetypes="sscsscsssss"
       inkscape:export-filename="/home/kagura/.fluxbox/styles/Mine/pixmaps/max.png"
       inkscape:export-xdpi="90"
       inkscape:export-ydpi="90" />
    <path
       style="fill:#8fb3d9;fill-opacity:1;stroke:none"
       d="m 79.973941,47.115322 c -0.175585,0 -0.357162,0.07033 -0.491706,0.204878 l -0.06146,0.06146 c -0.269088,0.269088 -0.269088,0.714324 0,0.983412 l 0.962924,0.962924 -0.962924,0.962925 c -0.269088,0.269088 -0.269088,0.714324 0,0.983412 l 0.06146,0.06146 c 0.269088,0.269089 0.714324,0.269089 0.983412,0 l 0.962925,-0.962924 0.962924,0.962924 c 0.269088,0.269089 0.714325,0.269089 0.983412,0 l 0.06146,-0.06146 c 0.269087,-0.269088 0.269087,-0.714324 0,-0.983412 l -0.962925,-0.962925 0.962925,-0.962924 c 0.269087,-0.269088 0.269087,-0.714324 0,-0.983412 l -0.06146,-0.06146 c -0.269087,-0.269089 -0.714324,-0.269089 -0.983412,0 L 81.428572,48.283124 80.465647,47.3202 c -0.134544,-0.134545 -0.316121,-0.204878 -0.491706,-0.204878 z"
       id="rect3807-1"
       inkscape:connector-curvature="0"
       inkscape:export-filename="/home/kagura/.fluxbox/styles/Mine/pixmaps/close.png"
       inkscape:export-xdpi="90"
       inkscape:export-ydpi="90" />
    <path
       style="fill:#8fb3d9;fill-opacity:1;stroke:none"
       d="m 68.831018,50.23718 c -0.131182,0 -0.241732,0.11055 -0.241732,0.241733 l 0,1.060374 3.099867,0 c 0.131184,0 0.241733,0.110549 0.241733,0.241733 l 0,3.063303 1.02381,0 c 0.131183,0 0.241733,-0.11055 0.241733,-0.241732 l 0,-4.123678 c 0,-0.131183 -0.11055,-0.241733 -0.241733,-0.241733 z"
       id="rect3777-5"
       inkscape:connector-curvature="0"
       sodipodi:nodetypes="sscsscsssss"
       inkscape:export-filename="/home/kagura/.fluxbox/styles/Mine/pixmaps/max.png"
       inkscape:export-xdpi="90"
       inkscape:export-ydpi="90" />
    <path
       style="fill:#8fb3d9;fill-opacity:1;stroke:none"
       d="m 62.418982,58.058611 c 0.131182,0 0.241732,-0.11055 0.241732,-0.24174 l 0,-1.06037 -3.099867,0 c -0.131184,0 -0.241733,-0.11055 -0.241733,-0.24173 l 0,-3.063307 -1.02381,0 c -0.131183,0 -0.241733,0.11055 -0.241733,0.241732 l 0,4.123675 c 0,0.13119 0.11055,0.24174 0.241733,0.24174 z"
       id="rect3777-6-3"
       inkscape:connector-curvature="0"
       sodipodi:nodetypes="sscsscsssss"
       inkscape:export-filename="/home/kagura/.fluxbox/styles/Mine/pixmaps/max.png"
       inkscape:export-xdpi="90"
       inkscape:export-ydpi="90" />
    <path
       style="fill:#8fb3d9;fill-opacity:1;stroke:none"
       d="m 89.285715,60.874085 c -1.312687,0 -2.380953,1.068266 -2.380953,2.380953 0,1.312686 1.068266,2.380952 2.380953,2.380952 1.312686,0 2.380952,-1.068266 2.380952,-2.380952 0,-1.312687 -1.068266,-2.380953 -2.380952,-2.380953 z m 0,1.022409 c 0.750107,0 1.358543,0.608437 1.358543,1.358544 0,0.750107 -0.608436,1.358543 -1.358543,1.358543 -0.750107,0 -1.358544,-0.608436 -1.358544,-1.358543 0,-0.750107 0.608437,-1.358544 1.358544,-1.358544 z"
       id="path3755-4"
       inkscape:connector-curvature="0"
       inkscape:export-filename="/home/kagura/.fluxbox/styles/Mine/pixmaps/min.png"
       inkscape:export-xdpi="90"
       inkscape:export-ydpi="90" />
  </g>
</svg>
