#define max_toggled_width 8
#define max_toggled_height 8
static unsigned char max_toggled_bits[] = {
   0x00, 0x7e, 0x62, 0x52, 0x4a, 0x46, 0x7e, 0x00 };
