#define ac10_width 8
#define ac10_height 8
static unsigned char ac10_bits[] = {
   0x18, 0xfc, 0x1f, 0x1f, 0x1f, 0xfc, 0x18, 0x00};
