#define batt10_width 8
#define batt10_height 8
static unsigned char batt10_bits[] = {
   0x38, 0xfe, 0x82, 0x92, 0xba, 0x92, 0x82, 0xfe};
