#define batt6half_width 8
#define batt6half_height 8
static unsigned char batt6half_bits[] = {
   0x00, 0x00, 0x7f, 0x41, 0xc5, 0x41, 0x7f, 0x00};
