#define bstack2_width 8
#define bstack2_height 8
static unsigned char bstack2_bits[] = {
   0xff, 0xff, 0xff, 0xff, 0x00, 0xff, 0x00, 0xff};
