#define cam1_width 8
#define cam1_height 8
static unsigned char cam1_bits[] = {
   0x7c, 0xc6, 0xba, 0xaa, 0xba, 0xc6, 0x7c, 0x82};
