#define cpu12_width 8
#define cpu12_height 8
static unsigned char cpu12_bits[] = {
   0x00, 0xcc, 0xb4, 0x78, 0x78, 0xb4, 0xcc, 0x00};
