#define cpu11_width 8
#define cpu11_height 8
static unsigned char cpu11_bits[] = {
   0x00, 0x00, 0xcc, 0xb4, 0x78, 0x78, 0xb4, 0xcc};
