#define cpu14_width 8
#define cpu14_height 8
static unsigned char cpu14_bits[] = {
   0x00, 0xd6, 0xc6, 0x38, 0xba, 0x38, 0xc6, 0xd6};
