#define cpu1_width 8
#define cpu1_height 8
static unsigned char cpu1_bits[] = {
   0x8f, 0xfe, 0xfe, 0xe6, 0x67, 0x7f, 0x7f, 0xf1};
