#define cpu5_width 8
#define cpu5_height 8
static unsigned char cpu5_bits[] = {
   0x81, 0x7e, 0x7e, 0x7e, 0x7e, 0x7e, 0x7e, 0x81};
