#define cpu6_width 8
#define cpu6_height 8
static unsigned char cpu6_bits[] = {
   0x00, 0x82, 0x7c, 0x7c, 0x7c, 0x7c, 0x7c, 0x82};
