#define cpu8_width 8
#define cpu8_height 8
static unsigned char cpu8_bits[] = {
   0x00, 0x84, 0x78, 0x78, 0x78, 0x78, 0x84, 0x00};
