#define cpu9_width 8
#define cpu9_height 8
static unsigned char cpu9_bits[] = {
   0xc3, 0xbd, 0x7e, 0x7e, 0x7e, 0x7e, 0xbd, 0xc3};
