#define diamond1_width 8
#define diamond1_height 8
static unsigned char diamond1_bits[] = {
   0x18, 0x3c, 0x7e, 0xff, 0xff, 0x7e, 0x3c, 0x18};
