#define headphone2_width 8
#define headphone2_height 8
static unsigned char headphone2_bits[] = {
   0x00, 0x3c, 0x42, 0x81, 0x81, 0xe7, 0xe7, 0x66};
