#define heart2_width 8
#define heart2_height 8
static unsigned char heart2_bits[] = {
   0x00, 0x66, 0xff, 0xff, 0xff, 0x7e, 0x3c, 0x18};
