#define info2_width 8
#define info2_height 8
static unsigned char info2_bits[] = {
   0x00, 0x70, 0x70, 0x00, 0x78, 0x70, 0x70, 0xf8};
