#define lock4_width 8
#define lock4_height 8
static unsigned char lock4_bits[] = {
   0x00, 0x78, 0x84, 0x84, 0x84, 0xfc, 0xfc, 0xfc};
