#define lock3_width 8
#define lock3_height 8
static unsigned char lock3_bits[] = {
   0x00, 0x7c, 0x82, 0x82, 0x82, 0xfe, 0xfe, 0xfe};
