#define mail6_width 8
#define mail6_height 8
static unsigned char mail6_bits[] = {
   0x00, 0x00, 0xff, 0x7e, 0xbd, 0xdb, 0xe7, 0xff};
