#define mail5_width 8
#define mail5_height 8
static unsigned char mail5_bits[] = {
   0x00, 0x00, 0xff, 0xc3, 0xa5, 0x99, 0x81, 0xff};
