#define note6_width 8
#define note6_height 8
static unsigned char note6_bits[] = {
   0x00, 0xf8, 0xf8, 0x88, 0x88, 0x88, 0xee, 0xee};
