#define note2_width 8
#define note2_height 8
static unsigned char note2_bits[] = {
   0x00, 0xfc, 0xfc, 0x84, 0x84, 0xc6, 0xe7, 0x63};
