#define pause1_width 8
#define pause1_height 8
static unsigned char pause1_bits[] = {
   0xd8, 0xd8, 0xd8, 0xd8, 0xd8, 0xd8, 0xd8, 0xd8};
