#define pause2_width 8
#define pause2_height 8
static unsigned char pause2_bits[] = {
   0x00, 0xd8, 0xd8, 0xd8, 0xd8, 0xd8, 0xd8, 0xd8};
