#define play4_width 8
#define play4_height 8
static unsigned char play4_bits[] = {
   0x00, 0x20, 0x60, 0xe0, 0xe0, 0x60, 0x20, 0x00};
