#define rightup2_width 8
#define rightup2_height 8
static unsigned char rightup2_bits[] = {
   0x00, 0x10, 0x31, 0x7f, 0xff, 0x7e, 0x30, 0x10};
