#define rss1_width 8
#define rss1_height 8
static unsigned char rss1_bits[] = {
   0x1f, 0x21, 0x4f, 0x91, 0xa7, 0xa9, 0xab, 0xff};
