#define spade_width 8
#define spade_height 8
static unsigned char spade_bits[] = {
   0x18, 0x3c, 0x7e, 0xff, 0xff, 0x7e, 0x18, 0x7e};
