#define uparrow5_width 8
#define uparrow5_height 8
static unsigned char uparrow5_bits[] = {
   0x00, 0x30, 0x78, 0xfc, 0x78, 0x78, 0x78, 0x78};
