#define uparrow4_width 8
#define uparrow4_height 8
static unsigned char uparrow4_bits[] = {
   0x30, 0x78, 0xfc, 0x78, 0x78, 0x78, 0x78, 0x78};
