#define upleft4_width 8
#define upleft4_height 8
static unsigned char upleft4_bits[] = {
   0x00, 0x10, 0x38, 0x7c, 0xfe, 0x38, 0x38, 0x1c};
