#define upright3_width 8
#define upright3_height 8
static unsigned char upright3_bits[] = {
   0x10, 0x38, 0x7c, 0xfe, 0x38, 0x38, 0x38, 0x70};
