#define upright7_width 8
#define upright7_height 8
static unsigned char upright7_bits[] = {
   0x00, 0x20, 0x70, 0xf8, 0x70, 0x70, 0x70, 0xe0};
