#define upright6_width 8
#define upright6_height 8
static unsigned char upright6_bits[] = {
   0x20, 0x70, 0xf8, 0x70, 0x70, 0x70, 0x70, 0xe0};
