#define vol5_width 8
#define vol5_height 8
static unsigned char vol5_bits[] = {
   0x00, 0x20, 0x30, 0xbc, 0xbc, 0xbc, 0x30, 0x20};
