#define vol6_width 8
#define vol6_height 8
static unsigned char vol6_bits[] = {
   0x00, 0x20, 0xb0, 0x5c, 0x2c, 0x14, 0x28, 0x24};
