#define vol7_width 8
#define vol7_height 8
static unsigned char vol7_bits[] = {
   0x00, 0x00, 0x48, 0x8c, 0xaf, 0xaf, 0x8c, 0x48};
