#define vol8_width 8
#define vol8_height 8
static unsigned char vol8_bits[] = {
   0x00, 0x00, 0x20, 0xb0, 0xbc, 0xbc, 0xb0, 0x20};
