#define wireless9_width 8
#define wireless9_height 8
static unsigned char wireless9_bits[] = {
   0x00, 0x00, 0xfc, 0x00, 0x78, 0x00, 0x30, 0x30};
