#define wireless4_width 8
#define wireless4_height 8
static unsigned char wireless4_bits[] = {
   0x00, 0x00, 0x80, 0x80, 0xa0, 0xa0, 0xa0, 0xa0};
