#define wireless8_width 8
#define wireless8_height 8
static unsigned char wireless8_bits[] = {
   0xff, 0x00, 0x7e, 0x00, 0x3c, 0x00, 0x18, 0x18};
