#define tilt_06_width 18
#define tilt_06_height 18
static unsigned char tilt_06_bits[] = {
   0xff, 0xff, 0x03, 0xff, 0xff, 0x03, 0xff, 0xff, 0x03, 0xff, 0xff, 0x03,
   0xff, 0xff, 0x03, 0xff, 0xff, 0x03, 0xff, 0x0f, 0x00, 0xff, 0x07, 0x00,
   0xff, 0x03, 0x00, 0xff, 0x01, 0x00, 0xff, 0x00, 0x00, 0x7f, 0x00, 0x00,
   0x3f, 0x00, 0x00, 0x3f, 0x00, 0x00, 0x3f, 0x00, 0x00, 0x3f, 0x00, 0x00,
   0x3f, 0x00, 0x00, 0x3f, 0x00, 0x00 };
