/* XPM */
static char * rec_xpm[] = {
"21 21 7 1",
" 	c None",
".	c #EBEBEB",
"+	c #9D9D9D",
"@	c #929292",
"#	c #B9B9B9",
"$	c #606060",
"%	c #4D4D4D",
".....................",
"...+@@@@@@@@@@@@@@#..",
"...$%%%%%%%%%%%%%%@..",
"...$%%%%%%%%%%%%%%@..",
"...$%%%%%%%%%%%%%%@..",
"...$%%%%%%%%%%%%%%@..",
"...$%%%%%%%%%%%%%%@..",
"...$%%%%%%%%%%%%%%@..",
"...$%%%%%%%%%%%%%%@..",
"...$%%%%%%%%%%%%%%@..",
"...$%%%%%%%%%%%%%%@..",
"...$%%%%%%%%%%%%%%@..",
"...$%%%%%%%%%%%%%%@..",
"...$%%%%%%%%%%%%%%@..",
"...$%%%%%%%%%%%%%%@..",
"...$%%%%%%%%%%%%%%@..",
"...$%%%%%%%%%%%%%%@..",
"...+@@@@@@@@@@@@@@#..",
".....................",
".....................",
"....................."};
