#define ac13_width 8
#define ac13_height 8
static unsigned char ac13_bits[] = {
   0x40, 0x20, 0x10, 0xf8, 0x40, 0x20, 0x10, 0x00};
