#define ac19_width 8
#define ac19_height 8
static unsigned char ac19_bits[] = {
   0x30, 0x18, 0x0c, 0xfe, 0x7f, 0x30, 0x18, 0x0c};
