#define ac5_width 8
#define ac5_height 8
static unsigned char ac5_bits[] = {
   0x00, 0x30, 0xf8, 0x3f, 0x3f, 0xf8, 0x30, 0x00};
