#define ac9_width 8
#define ac9_height 8
static unsigned char ac9_bits[] = {
   0x00, 0x18, 0xfc, 0x1f, 0x1f, 0x1f, 0xfc, 0x18};
