#define back3_width 8
#define back3_height 8
static unsigned char back3_bits[] = {
   0x00, 0x00, 0x88, 0xc8, 0xe8, 0xe8, 0xc8, 0x88};
