#define batt4half_width 8
#define batt4half_height 8
static unsigned char batt4half_bits[] = {
   0x20, 0xf8, 0x88, 0x88, 0x88, 0xa8, 0x88, 0xf8};
