#define batt7half_width 8
#define batt7half_height 8
static unsigned char batt7half_bits[] = {
   0x00, 0x00, 0x7f, 0xc1, 0xc5, 0xc1, 0x7f, 0x00};
