#define batt9full_width 8
#define batt9full_height 8
static unsigned char batt9full_bits[] = {
   0x00, 0x7f, 0xc1, 0xdd, 0xc1, 0x7f, 0x00, 0x00};
