#define batt11full_width 8
#define batt11full_height 8
static unsigned char batt11full_bits[] = {
   0x00, 0x20, 0xf8, 0x88, 0xa8, 0xa8, 0x88, 0xf8};
