#define batt4empty_width 8
#define batt4empty_height 8
static unsigned char batt4empty_bits[] = {
   0x70, 0xf8, 0x88, 0x88, 0x88, 0x88, 0x88, 0xf8};
