#define batt2half_width 8
#define batt2half_height 8
static unsigned char batt2half_bits[] = {
   0x00, 0x30, 0xfc, 0x84, 0x84, 0xb4, 0x84, 0xfc};
