#define clock9_width 8
#define clock9_height 8
static unsigned char clock9_bits[] = {
   0x00, 0x00, 0x30, 0x68, 0xec, 0x8c, 0x78, 0x30};
