#define clock6_width 8
#define clock6_height 8
static unsigned char clock6_bits[] = {
   0x00, 0x38, 0x6c, 0xee, 0x8e, 0xfe, 0x7c, 0x38};
