#define club1_width 8
#define club1_height 8
static unsigned char club1_bits[] = {
   0x18, 0x3c, 0x3c, 0x18, 0x7e, 0xff, 0xff, 0x66};
