#define cpu2_width 8
#define cpu2_height 8
static unsigned char cpu2_bits[] = {
   0x00, 0x8e, 0xfc, 0xc4, 0x54, 0x46, 0x7e, 0xe2};
