#define diamond2_width 8
#define diamond2_height 8
static unsigned char diamond2_bits[] = {
   0x00, 0x18, 0x3c, 0x7e, 0xff, 0x7e, 0x3c, 0x18};
