#define dice2_width 8
#define dice2_height 8
static unsigned char dice2_bits[] = {
   0xff, 0x9f, 0x9f, 0xff, 0xff, 0xf9, 0xf9, 0xff};
