#define downright4_width 8
#define downright4_height 8
static unsigned char downright4_bits[] = {
   0x00, 0x70, 0x38, 0x38, 0xfe, 0x7c, 0x38, 0x10};
