#define downleft5_width 8
#define downleft5_height 8
static unsigned char downleft5_bits[] = {
   0x3c, 0x78, 0x78, 0x78, 0x78, 0xfc, 0x78, 0x30};
