#define downarrow1_width 8
#define downarrow1_height 8
static unsigned char downarrow1_bits[] = {
   0x3c, 0x3c, 0x3c, 0x3c, 0xff, 0x7e, 0x3c, 0x18};
