#define dwindle_width 8
#define dwindle_height 8
static unsigned char dwindle_bits[] = {
   0xef, 0xef, 0xef, 0xef, 0x0f, 0xaf, 0x2f, 0xaf};
