#define error2_width 8
#define error2_height 8
static unsigned char error2_bits[] = {
   0x00, 0xfe, 0xba, 0xd6, 0xee, 0xd6, 0xba, 0xfe};
