#define floating_width 8
#define floating_height 8
static unsigned char floating_bits[] = {
   0xef, 0xef, 0xef, 0xef, 0xe0, 0xff, 0xff, 0xff};
