#define select3_width 8
#define select3_height 8
static unsigned char select3_bits[] = {
   0x00, 0x00, 0x88, 0x98, 0xb8, 0xb8, 0x98, 0x88};
