#define info6_width 8
#define info6_height 8
static unsigned char info6_bits[] = {
   0x00, 0x78, 0xcc, 0xcc, 0xcc, 0xfc, 0xcc, 0x78};
