#define info13_width 8
#define info13_height 8
static unsigned char info13_bits[] = {
   0x00, 0xfc, 0xcc, 0xcc, 0xcc, 0xfc, 0xcc, 0xfc};
