#define leftdown3_width 8
#define leftdown3_height 8
static unsigned char leftdown3_bits[] = {
   0x00, 0x04, 0x7e, 0xff, 0xff, 0xfe, 0x84, 0x00};
