#define leftdown1_width 8
#define leftdown1_height 8
static unsigned char leftdown1_bits[] = {
   0x08, 0x0c, 0x7e, 0xff, 0xff, 0xfe, 0x8c, 0x08};
