#define lock2_width 8
#define lock2_height 8
static unsigned char lock2_bits[] = {
   0x7c, 0x82, 0x82, 0x82, 0x82, 0xfe, 0xfe, 0xfe};
