#define mail8_width 8
#define mail8_height 8
static unsigned char mail8_bits[] = {
   0x00, 0xff, 0x7e, 0xbd, 0xdb, 0xe7, 0xff, 0x00};
