#define mail7_width 8
#define mail7_height 8
static unsigned char mail7_bits[] = {
   0x00, 0xff, 0xc3, 0xa5, 0x99, 0x81, 0xff, 0x00};
