#define mail1_width 8
#define mail1_height 8
static unsigned char mail1_bits[] = {
   0xff, 0x81, 0xc3, 0xa5, 0x99, 0x81, 0x81, 0xff};
