#define mail9_width 8
#define mail9_height 8
static unsigned char mail9_bits[] = {
   0xff, 0x81, 0xc3, 0xa5, 0x99, 0x81, 0xff, 0x00};
