#define mail3_width 8
#define mail3_height 8
static unsigned char mail3_bits[] = {
   0x00, 0xff, 0x81, 0xc3, 0xa5, 0x99, 0x81, 0xff};
