#define mem4_width 8
#define mem4_height 8
static unsigned char mem4_bits[] = {
   0x00, 0xaa, 0x00, 0xfe, 0xfe, 0x00, 0xaa, 0x00};
