#define mic2_width 8
#define mic2_height 8
static unsigned char mic2_bits[] = {
   0x00, 0x30, 0x30, 0xb4, 0x84, 0x78, 0x30, 0x78};
