#define note5_width 8
#define note5_height 8
static unsigned char note5_bits[] = {
   0x00, 0xf8, 0xf8, 0x88, 0x88, 0xcc, 0xee, 0x66};
