#define pacman2_width 8
#define pacman2_height 8
static unsigned char pacman2_bits[] = {
   0x00, 0x78, 0xec, 0x7e, 0x3e, 0x1e, 0xfc, 0x78};
