#define play2_width 8
#define play2_height 8
static unsigned char play2_bits[] = {
   0x00, 0x10, 0x30, 0x70, 0xf0, 0x70, 0x30, 0x10};
