#define play1_width 8
#define play1_height 8
static unsigned char play1_bits[] = {
   0x10, 0x30, 0x70, 0xf0, 0xf0, 0x70, 0x30, 0x10};
