#define prev1_width 8
#define prev1_height 8
static unsigned char prev1_bits[] = {
   0x88, 0xcc, 0xee, 0xff, 0xff, 0xee, 0xcc, 0x88};
