#define rightup1_width 8
#define rightup1_height 8
static unsigned char rightup1_bits[] = {
   0x10, 0x31, 0x7f, 0xff, 0xff, 0x7e, 0x30, 0x10};
