#define rightdown2_width 8
#define rightdown2_height 8
static unsigned char rightdown2_bits[] = {
   0x00, 0x10, 0x30, 0x7e, 0xff, 0x7f, 0x31, 0x10};
