#define skip4_width 8
#define skip4_height 8
static unsigned char skip4_bits[] = {
   0x00, 0x22, 0x66, 0xee, 0xee, 0x66, 0x22, 0x00};
