#define temp3_width 8
#define temp3_height 8
static unsigned char temp3_bits[] = {
   0x90, 0x38, 0xb8, 0x28, 0xa8, 0x44, 0x44, 0x38};
