#define temp4_width 8
#define temp4_height 8
static unsigned char temp4_bits[] = {
   0x00, 0x90, 0x38, 0xb8, 0x28, 0x44, 0x44, 0x38};
