#define upleft2_width 8
#define upleft2_height 8
static unsigned char upleft2_bits[] = {
   0x00, 0x18, 0x3c, 0x7e, 0xff, 0x3c, 0x3c, 0x1e};
